<svg width="30" height="610" viewBox="0 0 30 610" fill="none" xmlns="http://www.w3.org/2000/svg">
<rect width="10" height="10" fill="white"/>
<rect x="20" width="10" height="10" fill="white"/>
<rect x="10" width="10" height="10" fill="black"/>
<rect y="10" width="10" height="10" fill="black"/>
<rect x="10" y="10" width="10" height="10" fill="white"/>
<rect y="20" width="10" height="10" fill="white"/>
<rect x="20" y="20" width="10" height="10" fill="white"/>
<rect x="10" y="20" width="10" height="10" fill="black"/>
<rect x="20" y="10" width="10" height="10" fill="black"/>
<rect y="30" width="10" height="10" fill="black"/>
<rect x="10" y="30" width="10" height="10" fill="white"/>
<rect y="40" width="10" height="10" fill="white"/>
<rect x="20" y="40" width="10" height="10" fill="white"/>
<rect x="10" y="40" width="10" height="10" fill="black"/>
<rect x="20" y="30" width="10" height="10" fill="black"/>
<rect y="50" width="10" height="10" fill="black"/>
<rect x="10" y="50" width="10" height="10" fill="white"/>
<rect y="60" width="10" height="10" fill="white"/>
<rect x="20" y="60" width="10" height="10" fill="white"/>
<rect x="10" y="60" width="10" height="10" fill="black"/>
<rect x="20" y="50" width="10" height="10" fill="black"/>
<rect width="10" height="10" fill="white"/>
<rect x="20" width="10" height="10" fill="white"/>
<rect x="10" width="10" height="10" fill="black"/>
<rect y="10" width="10" height="10" fill="black"/>
<rect x="10" y="10" width="10" height="10" fill="white"/>
<rect y="20" width="10" height="10" fill="white"/>
<rect x="20" y="20" width="10" height="10" fill="white"/>
<rect x="10" y="20" width="10" height="10" fill="black"/>
<rect x="20" y="10" width="10" height="10" fill="black"/>
<rect y="30" width="10" height="10" fill="black"/>
<rect x="10" y="30" width="10" height="10" fill="white"/>
<rect y="40" width="10" height="10" fill="white"/>
<rect x="20" y="40" width="10" height="10" fill="white"/>
<rect x="10" y="40" width="10" height="10" fill="black"/>
<rect x="20" y="30" width="10" height="10" fill="black"/>
<rect y="50" width="10" height="10" fill="black"/>
<rect x="10" y="50" width="10" height="10" fill="white"/>
<rect y="60" width="10" height="10" fill="white"/>
<rect x="20" y="60" width="10" height="10" fill="white"/>
<rect x="10" y="60" width="10" height="10" fill="black"/>
<rect x="20" y="50" width="10" height="10" fill="black"/>
<rect y="230" width="10" height="10" fill="black"/>
<rect x="10" y="230" width="10" height="10" fill="white"/>
<rect y="240" width="10" height="10" fill="white"/>
<rect x="20" y="240" width="10" height="10" fill="white"/>
<rect x="10" y="240" width="10" height="10" fill="black"/>
<rect x="20" y="230" width="10" height="10" fill="black"/>
<rect y="250" width="10" height="10" fill="black"/>
<rect x="10" y="250" width="10" height="10" fill="white"/>
<rect y="260" width="10" height="10" fill="white"/>
<rect x="20" y="260" width="10" height="10" fill="white"/>
<rect x="10" y="260" width="10" height="10" fill="black"/>
<rect x="20" y="250" width="10" height="10" fill="black"/>
<rect y="270" width="10" height="10" fill="black"/>
<rect x="10" y="270" width="10" height="10" fill="white"/>
<rect y="280" width="10" height="10" fill="white"/>
<rect x="20" y="280" width="10" height="10" fill="white"/>
<rect x="10" y="280" width="10" height="10" fill="black"/>
<rect x="20" y="270" width="10" height="10" fill="black"/>
<rect y="290" width="10" height="10" fill="black"/>
<rect x="10" y="290" width="10" height="10" fill="white"/>
<rect y="300" width="10" height="10" fill="white"/>
<rect x="20" y="300" width="10" height="10" fill="white"/>
<rect x="10" y="300" width="10" height="10" fill="black"/>
<rect x="20" y="290" width="10" height="10" fill="black"/>
<rect y="230" width="10" height="10" fill="black"/>
<rect x="10" y="230" width="10" height="10" fill="white"/>
<rect y="240" width="10" height="10" fill="white"/>
<rect x="20" y="240" width="10" height="10" fill="white"/>
<rect x="10" y="240" width="10" height="10" fill="black"/>
<rect x="20" y="230" width="10" height="10" fill="black"/>
<rect y="250" width="10" height="10" fill="black"/>
<rect x="10" y="250" width="10" height="10" fill="white"/>
<rect y="260" width="10" height="10" fill="white"/>
<rect x="20" y="260" width="10" height="10" fill="white"/>
<rect x="10" y="260" width="10" height="10" fill="black"/>
<rect x="20" y="250" width="10" height="10" fill="black"/>
<rect y="270" width="10" height="10" fill="black"/>
<rect x="10" y="270" width="10" height="10" fill="white"/>
<rect y="280" width="10" height="10" fill="white"/>
<rect x="20" y="280" width="10" height="10" fill="white"/>
<rect x="10" y="280" width="10" height="10" fill="black"/>
<rect x="20" y="270" width="10" height="10" fill="black"/>
<rect y="290" width="10" height="10" fill="black"/>
<rect x="10" y="290" width="10" height="10" fill="white"/>
<rect y="300" width="10" height="10" fill="white"/>
<rect x="20" y="300" width="10" height="10" fill="white"/>
<rect x="10" y="300" width="10" height="10" fill="black"/>
<rect x="20" y="290" width="10" height="10" fill="black"/>
<rect y="150" width="10" height="10" fill="black"/>
<rect x="10" y="150" width="10" height="10" fill="white"/>
<rect y="160" width="10" height="10" fill="white"/>
<rect x="20" y="160" width="10" height="10" fill="white"/>
<rect x="10" y="160" width="10" height="10" fill="black"/>
<rect x="20" y="150" width="10" height="10" fill="black"/>
<rect y="170" width="10" height="10" fill="black"/>
<rect x="10" y="170" width="10" height="10" fill="white"/>
<rect y="180" width="10" height="10" fill="white"/>
<rect x="20" y="180" width="10" height="10" fill="white"/>
<rect x="10" y="180" width="10" height="10" fill="black"/>
<rect x="20" y="170" width="10" height="10" fill="black"/>
<rect y="190" width="10" height="10" fill="black"/>
<rect x="10" y="190" width="10" height="10" fill="white"/>
<rect y="200" width="10" height="10" fill="white"/>
<rect x="20" y="200" width="10" height="10" fill="white"/>
<rect x="10" y="200" width="10" height="10" fill="black"/>
<rect x="20" y="190" width="10" height="10" fill="black"/>
<rect y="210" width="10" height="10" fill="black"/>
<rect x="10" y="210" width="10" height="10" fill="white"/>
<rect y="220" width="10" height="10" fill="white"/>
<rect x="20" y="220" width="10" height="10" fill="white"/>
<rect x="10" y="220" width="10" height="10" fill="black"/>
<rect x="20" y="210" width="10" height="10" fill="black"/>
<rect y="150" width="10" height="10" fill="black"/>
<rect x="10" y="150" width="10" height="10" fill="white"/>
<rect y="160" width="10" height="10" fill="white"/>
<rect x="20" y="160" width="10" height="10" fill="white"/>
<rect x="10" y="160" width="10" height="10" fill="black"/>
<rect x="20" y="150" width="10" height="10" fill="black"/>
<rect y="170" width="10" height="10" fill="black"/>
<rect x="10" y="170" width="10" height="10" fill="white"/>
<rect y="180" width="10" height="10" fill="white"/>
<rect x="20" y="180" width="10" height="10" fill="white"/>
<rect x="10" y="180" width="10" height="10" fill="black"/>
<rect x="20" y="170" width="10" height="10" fill="black"/>
<rect y="190" width="10" height="10" fill="black"/>
<rect x="10" y="190" width="10" height="10" fill="white"/>
<rect y="200" width="10" height="10" fill="white"/>
<rect x="20" y="200" width="10" height="10" fill="white"/>
<rect x="10" y="200" width="10" height="10" fill="black"/>
<rect x="20" y="190" width="10" height="10" fill="black"/>
<rect y="210" width="10" height="10" fill="black"/>
<rect x="10" y="210" width="10" height="10" fill="white"/>
<rect y="220" width="10" height="10" fill="white"/>
<rect x="20" y="220" width="10" height="10" fill="white"/>
<rect x="10" y="220" width="10" height="10" fill="black"/>
<rect x="20" y="210" width="10" height="10" fill="black"/>
<rect y="70" width="10" height="10" fill="black"/>
<rect x="10" y="70" width="10" height="10" fill="white"/>
<rect y="80" width="10" height="10" fill="white"/>
<rect x="20" y="80" width="10" height="10" fill="white"/>
<rect x="10" y="80" width="10" height="10" fill="black"/>
<rect x="20" y="70" width="10" height="10" fill="black"/>
<rect y="90" width="10" height="10" fill="black"/>
<rect x="10" y="90" width="10" height="10" fill="white"/>
<rect y="100" width="10" height="10" fill="white"/>
<rect x="20" y="100" width="10" height="10" fill="white"/>
<rect x="10" y="100" width="10" height="10" fill="black"/>
<rect x="20" y="90" width="10" height="10" fill="black"/>
<rect y="110" width="10" height="10" fill="black"/>
<rect x="10" y="110" width="10" height="10" fill="white"/>
<rect y="120" width="10" height="10" fill="white"/>
<rect x="20" y="120" width="10" height="10" fill="white"/>
<rect x="10" y="120" width="10" height="10" fill="black"/>
<rect x="20" y="110" width="10" height="10" fill="black"/>
<rect y="130" width="10" height="10" fill="black"/>
<rect x="10" y="130" width="10" height="10" fill="white"/>
<rect y="140" width="10" height="10" fill="white"/>
<rect x="20" y="140" width="10" height="10" fill="white"/>
<rect x="10" y="140" width="10" height="10" fill="black"/>
<rect x="20" y="130" width="10" height="10" fill="black"/>
<rect y="70" width="10" height="10" fill="black"/>
<rect x="10" y="70" width="10" height="10" fill="white"/>
<rect y="80" width="10" height="10" fill="white"/>
<rect x="20" y="80" width="10" height="10" fill="white"/>
<rect x="10" y="80" width="10" height="10" fill="black"/>
<rect x="20" y="70" width="10" height="10" fill="black"/>
<rect y="90" width="10" height="10" fill="black"/>
<rect x="10" y="90" width="10" height="10" fill="white"/>
<rect y="100" width="10" height="10" fill="white"/>
<rect x="20" y="100" width="10" height="10" fill="white"/>
<rect x="10" y="100" width="10" height="10" fill="black"/>
<rect x="20" y="90" width="10" height="10" fill="black"/>
<rect y="110" width="10" height="10" fill="black"/>
<rect x="10" y="110" width="10" height="10" fill="white"/>
<rect y="120" width="10" height="10" fill="white"/>
<rect x="20" y="120" width="10" height="10" fill="white"/>
<rect x="10" y="120" width="10" height="10" fill="black"/>
<rect x="20" y="110" width="10" height="10" fill="black"/>
<rect y="130" width="10" height="10" fill="black"/>
<rect x="10" y="130" width="10" height="10" fill="white"/>
<rect y="140" width="10" height="10" fill="white"/>
<rect x="20" y="140" width="10" height="10" fill="white"/>
<rect x="10" y="140" width="10" height="10" fill="black"/>
<rect x="20" y="130" width="10" height="10" fill="black"/>
<rect y="310" width="10" height="10" fill="black"/>
<rect x="10" y="310" width="10" height="10" fill="white"/>
<rect y="320" width="10" height="10" fill="white"/>
<rect x="20" y="320" width="10" height="10" fill="white"/>
<rect x="10" y="320" width="10" height="10" fill="black"/>
<rect x="20" y="310" width="10" height="10" fill="black"/>
<rect y="330" width="10" height="10" fill="black"/>
<rect x="10" y="330" width="10" height="10" fill="white"/>
<rect y="340" width="10" height="10" fill="white"/>
<rect x="20" y="340" width="10" height="10" fill="white"/>
<rect x="10" y="340" width="10" height="10" fill="black"/>
<rect x="20" y="330" width="10" height="10" fill="black"/>
<rect y="350" width="10" height="10" fill="black"/>
<rect x="10" y="350" width="10" height="10" fill="white"/>
<rect y="360" width="10" height="10" fill="white"/>
<rect x="20" y="360" width="10" height="10" fill="white"/>
<rect x="10" y="360" width="10" height="10" fill="black"/>
<rect x="20" y="350" width="10" height="10" fill="black"/>
<rect y="370" width="10" height="10" fill="black"/>
<rect x="10" y="370" width="10" height="10" fill="white"/>
<rect y="380" width="10" height="10" fill="white"/>
<rect x="20" y="380" width="10" height="10" fill="white"/>
<rect x="10" y="380" width="10" height="10" fill="black"/>
<rect x="20" y="370" width="10" height="10" fill="black"/>
<rect y="310" width="10" height="10" fill="black"/>
<rect x="10" y="310" width="10" height="10" fill="white"/>
<rect y="320" width="10" height="10" fill="white"/>
<rect x="20" y="320" width="10" height="10" fill="white"/>
<rect x="10" y="320" width="10" height="10" fill="black"/>
<rect x="20" y="310" width="10" height="10" fill="black"/>
<rect y="330" width="10" height="10" fill="black"/>
<rect x="10" y="330" width="10" height="10" fill="white"/>
<rect y="340" width="10" height="10" fill="white"/>
<rect x="20" y="340" width="10" height="10" fill="white"/>
<rect x="10" y="340" width="10" height="10" fill="black"/>
<rect x="20" y="330" width="10" height="10" fill="black"/>
<rect y="350" width="10" height="10" fill="black"/>
<rect x="10" y="350" width="10" height="10" fill="white"/>
<rect y="360" width="10" height="10" fill="white"/>
<rect x="20" y="360" width="10" height="10" fill="white"/>
<rect x="10" y="360" width="10" height="10" fill="black"/>
<rect x="20" y="350" width="10" height="10" fill="black"/>
<rect y="370" width="10" height="10" fill="black"/>
<rect x="10" y="370" width="10" height="10" fill="white"/>
<rect y="380" width="10" height="10" fill="white"/>
<rect x="20" y="380" width="10" height="10" fill="white"/>
<rect x="10" y="380" width="10" height="10" fill="black"/>
<rect x="20" y="370" width="10" height="10" fill="black"/>
<rect y="390" width="10" height="10" fill="black"/>
<rect x="10" y="390" width="10" height="10" fill="white"/>
<rect y="400" width="10" height="10" fill="white"/>
<rect x="20" y="400" width="10" height="10" fill="white"/>
<rect x="10" y="400" width="10" height="10" fill="black"/>
<rect x="20" y="390" width="10" height="10" fill="black"/>
<rect y="410" width="10" height="10" fill="black"/>
<rect x="10" y="410" width="10" height="10" fill="white"/>
<rect y="420" width="10" height="10" fill="white"/>
<rect x="20" y="420" width="10" height="10" fill="white"/>
<rect x="10" y="420" width="10" height="10" fill="black"/>
<rect x="20" y="410" width="10" height="10" fill="black"/>
<rect y="430" width="10" height="10" fill="black"/>
<rect x="10" y="430" width="10" height="10" fill="white"/>
<rect y="440" width="10" height="10" fill="white"/>
<rect x="20" y="440" width="10" height="10" fill="white"/>
<rect x="10" y="440" width="10" height="10" fill="black"/>
<rect x="20" y="430" width="10" height="10" fill="black"/>
<rect y="450" width="10" height="10" fill="black"/>
<rect x="10" y="450" width="10" height="10" fill="white"/>
<rect y="460" width="10" height="10" fill="white"/>
<rect x="20" y="460" width="10" height="10" fill="white"/>
<rect x="10" y="460" width="10" height="10" fill="black"/>
<rect x="20" y="450" width="10" height="10" fill="black"/>
<rect y="390" width="10" height="10" fill="black"/>
<rect x="10" y="390" width="10" height="10" fill="white"/>
<rect y="400" width="10" height="10" fill="white"/>
<rect x="20" y="400" width="10" height="10" fill="white"/>
<rect x="10" y="400" width="10" height="10" fill="black"/>
<rect x="20" y="390" width="10" height="10" fill="black"/>
<rect y="410" width="10" height="10" fill="black"/>
<rect x="10" y="410" width="10" height="10" fill="white"/>
<rect y="420" width="10" height="10" fill="white"/>
<rect x="20" y="420" width="10" height="10" fill="white"/>
<rect x="10" y="420" width="10" height="10" fill="black"/>
<rect x="20" y="410" width="10" height="10" fill="black"/>
<rect y="430" width="10" height="10" fill="black"/>
<rect x="10" y="430" width="10" height="10" fill="white"/>
<rect y="440" width="10" height="10" fill="white"/>
<rect x="20" y="440" width="10" height="10" fill="white"/>
<rect x="10" y="440" width="10" height="10" fill="black"/>
<rect x="20" y="430" width="10" height="10" fill="black"/>
<rect y="450" width="10" height="10" fill="black"/>
<rect x="10" y="450" width="10" height="10" fill="white"/>
<rect y="460" width="10" height="10" fill="white"/>
<rect x="20" y="460" width="10" height="10" fill="white"/>
<rect x="10" y="460" width="10" height="10" fill="black"/>
<rect x="20" y="450" width="10" height="10" fill="black"/>
<rect y="470" width="10" height="10" fill="black"/>
<rect x="10" y="470" width="10" height="10" fill="white"/>
<rect y="480" width="10" height="10" fill="white"/>
<rect x="20" y="480" width="10" height="10" fill="white"/>
<rect x="10" y="480" width="10" height="10" fill="black"/>
<rect x="20" y="470" width="10" height="10" fill="black"/>
<rect y="490" width="10" height="10" fill="black"/>
<rect x="10" y="490" width="10" height="10" fill="white"/>
<rect y="500" width="10" height="10" fill="white"/>
<rect x="20" y="500" width="10" height="10" fill="white"/>
<rect x="10" y="500" width="10" height="10" fill="black"/>
<rect x="20" y="490" width="10" height="10" fill="black"/>
<rect y="510" width="10" height="10" fill="black"/>
<rect x="10" y="510" width="10" height="10" fill="white"/>
<rect y="520" width="10" height="10" fill="white"/>
<rect x="20" y="520" width="10" height="10" fill="white"/>
<rect x="10" y="520" width="10" height="10" fill="black"/>
<rect x="20" y="510" width="10" height="10" fill="black"/>
<rect y="530" width="10" height="10" fill="black"/>
<rect x="10" y="530" width="10" height="10" fill="white"/>
<rect y="540" width="10" height="10" fill="white"/>
<rect x="20" y="540" width="10" height="10" fill="white"/>
<rect x="10" y="540" width="10" height="10" fill="black"/>
<rect x="20" y="530" width="10" height="10" fill="black"/>
<rect y="470" width="10" height="10" fill="black"/>
<rect x="10" y="470" width="10" height="10" fill="white"/>
<rect y="480" width="10" height="10" fill="white"/>
<rect x="20" y="480" width="10" height="10" fill="white"/>
<rect x="10" y="480" width="10" height="10" fill="black"/>
<rect x="20" y="470" width="10" height="10" fill="black"/>
<rect y="490" width="10" height="10" fill="black"/>
<rect x="10" y="490" width="10" height="10" fill="white"/>
<rect y="500" width="10" height="10" fill="white"/>
<rect x="20" y="500" width="10" height="10" fill="white"/>
<rect x="10" y="500" width="10" height="10" fill="black"/>
<rect x="20" y="490" width="10" height="10" fill="black"/>
<rect y="510" width="10" height="10" fill="black"/>
<rect x="10" y="510" width="10" height="10" fill="white"/>
<rect y="520" width="10" height="10" fill="white"/>
<rect x="20" y="520" width="10" height="10" fill="white"/>
<rect x="10" y="520" width="10" height="10" fill="black"/>
<rect x="20" y="510" width="10" height="10" fill="black"/>
<rect y="530" width="10" height="10" fill="black"/>
<rect x="20" y="550" width="10" height="10" fill="black"/>
<rect y="550" width="10" height="10" fill="black"/>
<rect x="10" y="530" width="10" height="10" fill="white"/>
<rect y="540" width="10" height="10" fill="white"/>
<rect x="20" y="540" width="10" height="10" fill="white"/>
<rect x="10" y="550" width="10" height="10" fill="white"/>
<rect x="10" y="540" width="10" height="10" fill="black"/>
<rect x="20" y="530" width="10" height="10" fill="black"/>
<rect y="560" width="10" height="10" fill="white"/>
<rect x="20" y="560" width="10" height="10" fill="white"/>
<rect x="10" y="560" width="10" height="10" fill="black"/>
<rect y="570" width="10" height="10" fill="black"/>
<rect x="10" y="570" width="10" height="10" fill="white"/>
<rect y="580" width="10" height="10" fill="white"/>
<rect x="20" y="580" width="10" height="10" fill="white"/>
<rect x="10" y="580" width="10" height="10" fill="black"/>
<rect x="20" y="570" width="10" height="10" fill="black"/>
<rect y="590" width="10" height="10" fill="black"/>
<rect x="10" y="590" width="10" height="10" fill="white"/>
<rect y="600" width="10" height="10" fill="white"/>
<rect x="20" y="600" width="10" height="10" fill="white"/>
<rect x="10" y="600" width="10" height="10" fill="black"/>
<rect x="20" y="590" width="10" height="10" fill="black"/>
<rect y="560" width="10" height="10" fill="white"/>
<rect x="20" y="560" width="10" height="10" fill="white"/>
<rect x="10" y="560" width="10" height="10" fill="black"/>
<rect y="570" width="10" height="10" fill="black"/>
<rect x="10" y="570" width="10" height="10" fill="white"/>
<rect y="580" width="10" height="10" fill="white"/>
<rect x="20" y="580" width="10" height="10" fill="white"/>
<rect x="10" y="580" width="10" height="10" fill="black"/>
<rect x="20" y="570" width="10" height="10" fill="black"/>
<rect y="590" width="10" height="10" fill="black"/>
<rect x="10" y="590" width="10" height="10" fill="white"/>
<rect y="600" width="10" height="10" fill="white"/>
<rect x="20" y="600" width="10" height="10" fill="white"/>
<rect x="10" y="600" width="10" height="10" fill="black"/>
<rect x="20" y="590" width="10" height="10" fill="black"/>
</svg>
